<svg width="134" height="236" viewBox="0 0 134 236" fill="none" xmlns="http://www.w3.org/2000/svg">
<path d="M25 25.5C10 33.5 18.5069 35.199 4.97698 37.9048C-6.32583 40.1651 -19.3147 39.969 -30.1829 45.2804C-35.6161 47.9356 -20.8915 55.6295 -15.332 57.6931C11.172 67.5311 10.5083 72.5733 37.5866 78.0212C49.8934 80.4971 86.7123 85.4209 74.3332 87.0159C59.1822 88.968 42.9053 87.1487 27.8129 86.9259C-12.4678 86.3313 -24.873 83.8314 -65.1525 84.7672C-69.0004 84.8566 -79.7918 86.5446 -76.3224 88.9048C-70.0654 93.1613 -33.4863 129.735 -30.1829 130.64C17.7382 143.77 2.87183 120.911 51.1582 130.64C62.8521 132.996 85.431 137.833 98.3766 141.434C101.843 142.398 111.476 143.819 108.404 146.291C98.3766 150.5 44 156.391 34.5 162C14.1895 173.992 38.2393 169.206 19.1816 172.5C18.1865 172.672 -17.7241 170.451 -14.0744 184.069C-13.1426 187.545 -9.72715 188.458 -7.22009 189.556C-2.11053 191.793 -8.80508 196.043 -3.5 197C21.9935 201.601 36.6461 205.5 74.3332 211" stroke="#FFD568" stroke-width="50" stroke-linecap="round"/>
</svg>
