<svg width="84" height="270" viewBox="0 0 84 270" fill="none" xmlns="http://www.w3.org/2000/svg">
<path d="M68.7205 50C68.7205 56.5985 68.7205 63.197 68.7205 69.7956C68.7205 81.5555 71.7714 92.0314 72.7333 103.569C74.2453 121.704 69.2345 139.005 58.9972 154.04C51.8361 164.557 47.0758 173.82 52.052 186C58.273 201.227 70.2995 211.057 84 220" stroke="#FFD568" stroke-width="100" stroke-linecap="round"/>
<path d="M72.29 43.7593C73.3637 46.6581 77.744 53.4614 81.8532 50.9109C85.9525 48.3665 79.5188 42.5089 77.529 41.514" stroke="#151C2C" stroke-width="10" stroke-linecap="round"/>
<path d="M39.3594 92.4067C39.3594 97.914 49.9661 101.793 53.0804 96.9804C55.0036 94.0082 53.3018 89.1166 50.1699 87.6667C46.5446 85.9883 43.5228 94.1992 42.3531 96.1488" stroke="#151C2C" stroke-width="10" stroke-linecap="round"/>
<path d="M38.6108 164.255C37.5117 166.454 32.6586 174.445 36.5319 175.69C44.2915 178.184 44.193 166.104 43.1014 162.01" stroke="#151C2C" stroke-width="10" stroke-linecap="round"/>
<path d="M65.5542 219.639C65.5542 222.33 65.6713 225.091 68.0905 226.873C69.9116 228.215 68.2301 223.418 67.051 222.632" stroke="#151C2C" stroke-width="10" stroke-linecap="round"/>
<path d="M85.0131 133.57C82.0629 136.52 79.8994 143.875 84.2646 146.543C89.1275 149.514 91.127 138.809 83.5162 138.809" stroke="#151C2C" stroke-width="10" stroke-linecap="round"/>
</svg>
